<svg width="38" height="38" viewBox="0 0 38 38" fill="none" xmlns="http://www.w3.org/2000/svg">
    <circle cx="19" cy="19" r="19" fill="#D080FF"/>
    <path fill-rule="evenodd" clip-rule="evenodd" d="M22.6397 10.6752C22.6397 12.3733 21.4992 13.8024 19.9495 14.2241L19.9495 15.3719C22.296 15.8238 24.0704 17.9196 24.0704 20.4366C24.0704 21.023 23.9741 21.5866 23.7967 22.1118L24.7908 22.6913C25.9273 21.547 27.7232 21.2642 29.1795 22.1132C30.9204 23.1281 31.5168 25.3758 30.5118 27.1336C29.5067 28.8914 27.2807 29.4937 25.5399 28.4788C24.0835 27.6298 23.4281 25.9179 23.8413 24.3519L22.8597 23.7797C21.9297 24.8884 20.5456 25.5915 19 25.5915C17.4544 25.5915 16.0703 24.8884 15.1403 23.7797L14.1587 24.3519C14.5719 25.9179 13.9165 27.6298 12.4601 28.4788C10.7193 29.4937 8.49329 28.8914 7.48823 27.1336C6.48317 25.3758 7.07962 23.1281 8.82044 22.1132C10.2768 21.2642 12.0727 21.547 13.2092 22.6913L14.2033 22.1118C14.0259 21.5866 13.9296 21.023 13.9296 20.4366C13.9296 17.9196 15.704 15.8239 18.0505 15.3719L18.0505 14.224C16.5009 13.8023 15.3604 12.3732 15.3604 10.6752C15.3604 8.64543 16.9899 7 19.0001 7C21.0102 7 22.6397 8.64544 22.6397 10.6752ZM21.3298 19.0642C20.5869 17.765 18.9416 17.3198 17.6549 18.0699C16.3682 18.82 15.9274 20.4814 16.6702 21.7806C17.4131 23.0799 19.0584 23.5251 20.3451 22.7749C21.6318 22.0248 22.0727 20.3635 21.3298 19.0642ZM22.5493 20.4366C22.5493 22.4435 20.9602 24.0704 19 24.0704C17.0398 24.0704 15.4507 22.4435 15.4507 20.4366C15.4507 18.4297 17.0398 16.8028 19 16.8028C20.9602 16.8028 22.5493 18.4297 22.5493 20.4366Z" fill="#141921"/>
</svg>
