<svg width="38" height="38" viewBox="0 0 38 38" fill="none" xmlns="http://www.w3.org/2000/svg">
    <circle cx="19" cy="19" r="19" fill="#FF8C00"/>
    <g>
        <!-- Взрыв / обстріл -->
        <!-- Центральная вспышка -->
        <circle cx="19" cy="19" r="4" fill="#141921"/>
        <!-- Лучи взрыва -->
        <path d="M19 7 L20.5 14 L19 12 L17.5 14 Z" fill="#141921"/>
        <path d="M19 31 L20.5 24 L19 26 L17.5 24 Z" fill="#141921"/>
        <path d="M7 19 L14 17.5 L12 19 L14 20.5 Z" fill="#141921"/>
        <path d="M31 19 L24 17.5 L26 19 L24 20.5 Z" fill="#141921"/>
        <!-- Диагональные лучи -->
        <path d="M10.5 10.5 L15 14 L13.5 14.5 L14 15 L14.5 13.5 Z" fill="#141921"/>
        <path d="M27.5 10.5 L23 14 L23.5 14.5 L24 15 L24.5 13.5 Z" fill="#141921"/>
        <path d="M10.5 27.5 L14 23 L14.5 23.5 L15 24 L13.5 24.5 Z" fill="#141921"/>
        <path d="M27.5 27.5 L24 23 L23.5 23.5 L23 24 L24.5 24.5 Z" fill="#141921"/>
        <!-- Осколки -->
        <circle cx="15" cy="11" r="1.2" fill="#141921"/>
        <circle cx="23" cy="11" r="1.2" fill="#141921"/>
        <circle cx="11" cy="15" r="1.2" fill="#141921"/>
        <circle cx="27" cy="15" r="1.2" fill="#141921"/>
        <circle cx="11" cy="23" r="1.2" fill="#141921"/>
        <circle cx="27" cy="23" r="1.2" fill="#141921"/>
        <circle cx="15" cy="27" r="1.2" fill="#141921"/>
        <circle cx="23" cy="27" r="1.2" fill="#141921"/>
    </g>
</svg>
